<svg xmlns="http://www.w3.org/2000/svg" viewBox="0 0 4306.8 4306.8" width="21" height="21">
  <path fill="currentColor" d="M757.44 0l2791.92 0c208.41,0 397.83,85.2 535.05,222.39 137.2,137.22 222.39,326.64 222.39,535.05l0 2791.92c0,208.41 -85.2,397.83 -222.39,535.03 -137.22,137.22 -326.64,222.41 -535.05,222.41l-2791.92 0c-208.43,0 -397.85,-85.2 -535.03,-222.41 -137.22,-137.18 -222.41,-326.6 -222.41,-535.03l0 -2791.92c0,-208.41 85.2,-397.83 222.41,-535.05 137.2,-137.2 326.62,-222.39 535.03,-222.39zm149.01 1695.13l788.67 0 0 -788.67c0,-95.99 39.2,-183.21 102.32,-246.33 63.1,-63.1 150.32,-102.3 246.31,-102.3l219.28 0c95.62,0 182.66,39.2 245.78,102.3l0.55 0.55c63.1,63.12 102.3,150.16 102.3,245.78l0 788.67 788.67 0c95.62,0 182.66,39.2 245.78,102.3l0.55 0.55c63.1,63.12 102.3,150.16 102.3,245.78l0 219.28c0,95.99 -39.2,183.21 -102.3,246.31 -63.12,63.12 -150.34,102.32 -246.33,102.32l-788.67 0 0 788.67c0,95.99 -39.2,183.21 -102.3,246.31 -63.12,63.12 -150.34,102.32 -246.33,102.32l-219.28 0c-95.33,0 -182.35,-39.18 -245.76,-102.32l-0.55 -0.55c-63.14,-63.41 -102.32,-150.42 -102.32,-245.76l0 -788.67 -788.67 0c-95.33,0 -182.35,-39.18 -245.76,-102.32l-0.55 -0.55c-63.14,-63.41 -102.32,-150.42 -102.32,-245.76l0 -219.28c0,-95.99 39.2,-183.21 102.32,-246.33 63.1,-63.1 150.32,-102.3 246.31,-102.3zm2642.91 -1406.67l-2791.92 0c-128.84,0 -246.08,52.82 -331.11,137.85 -85.05,85.05 -137.87,202.3 -137.87,331.14l0 2791.92c0,128.84 52.82,246.08 137.87,331.11 85.03,85.05 202.28,137.87 331.11,137.87l2791.92 0c128.84,0 246.08,-52.82 331.14,-137.87 85.03,-85.03 137.85,-202.28 137.85,-331.11l0 -2791.92c0,-128.84 -52.82,-246.08 -137.85,-331.14 -85.05,-85.03 -202.3,-137.85 -331.14,-137.85z"/>
</svg>