<svg xmlns="http://www.w3.org/2000/svg" viewBox="0 0 733.25 733.25" width="21" height="21">
  <path fill="currentColor" d="M128.96 0l475.34 0c35.48,0 67.73,14.5 91.09,37.86 23.36,23.36 37.86,55.61 37.86,91.09l0 475.34c0,35.48 -14.5,67.73 -37.86,91.09 -23.36,23.36 -55.61,37.87 -91.09,37.87l-475.34 0c-35.49,0 -67.74,-14.5 -91.09,-37.87 -23.36,-23.35 -37.87,-55.6 -37.87,-91.09l0 -475.34c0,-35.48 14.5,-67.73 37.87,-91.09 23.36,-23.36 55.61,-37.86 91.09,-37.86zm315.69 154.33l0 424.6c0,16.34 -6.67,31.19 -17.42,41.93 -10.75,10.75 -25.6,17.42 -41.94,17.42l-230.97 0c-16.23,0 -31.05,-6.67 -41.84,-17.42l-0.09 -0.09c-10.75,-10.8 -17.42,-25.61 -17.42,-41.84l0 -424.6c0,-16.34 6.67,-31.19 17.42,-41.94 10.74,-10.74 25.59,-17.42 41.93,-17.42l230.97 0c16.28,0 31.1,6.67 41.84,17.42l0.09 0.09c10.74,10.75 17.42,25.56 17.42,41.84zm159.65 -105.22l-475.34 0c-21.93,0 -41.9,8.99 -56.37,23.47 -14.48,14.48 -23.47,34.44 -23.47,56.38l0 475.34c0,21.93 8.99,41.9 23.47,56.37 14.48,14.48 34.44,23.47 56.37,23.47l475.34 0c21.93,0 41.9,-8.99 56.38,-23.47 14.48,-14.48 23.47,-34.44 23.47,-56.37l0 -475.34c0,-21.93 -8.99,-41.9 -23.47,-56.38 -14.48,-14.48 -34.44,-23.47 -56.38,-23.47z"/>
</svg>