<svg xmlns="http://www.w3.org/2000/svg" viewBox="0 0 1123.95 1123.95" width="21" height="21">
  <path fill="currentColor" d="M263.25 255.52l0 53.38c0,4.28 1.78,8.2 4.64,11.06 2.86,2.86 6.79,4.64 11.06,4.64l49.31 0c-8.22,-24.58 -12.68,-50.87 -12.68,-78.21 0,-68.03 27.58,-129.63 72.17,-174.22 44.59,-44.59 106.19,-72.17 174.22,-72.17 68.02,0 129.63,27.58 174.22,72.17 44.59,44.59 72.17,106.19 72.17,174.22 0,27.33 -4.46,53.63 -12.68,78.21l49.31 0c4.38,0 8.29,-1.73 11.06,-4.5l0.14 -0.14c2.77,-2.77 4.5,-6.68 4.5,-11.06l0 -53.38c0,-36.24 14.74,-69.1 38.56,-92.92l0.14 -0.14c23.82,-23.82 56.68,-38.56 92.92,-38.56 36.23,0 69.1,14.74 92.92,38.56l0.14 0.14c23.82,23.82 38.56,56.68 38.56,92.92l0 97.44c0,54.38 -22.24,103.81 -58.05,139.62 -35.81,35.81 -85.24,58.05 -139.62,58.05l-122.39 0 0 44.94c39.37,7.66 74.65,27.08 101.99,54.42 35.8,35.81 58.04,85.24 58.04,139.63l0 102.63c39.37,7.66 74.65,27.08 101.99,54.42 35.81,35.81 58.04,85.24 58.04,139.63 0,20.78 -16.86,37.64 -37.64,37.64l-1048.67 0c-20.78,0 -37.64,-16.86 -37.64,-37.64 0,-54.39 22.23,-103.82 58.04,-139.63 27.34,-27.34 62.63,-46.76 101.99,-54.42l0 -102.63c0,-54.39 22.23,-103.82 58.04,-139.63 27.34,-27.34 62.63,-46.76 101.99,-54.42l0 -44.94 -122.39 0c-54.38,0 -103.82,-22.23 -139.63,-58.04 -35.81,-35.81 -58.04,-85.24 -58.04,-139.63l0 -97.44c0,-36.24 14.74,-69.1 38.56,-92.92l0.14 -0.14c23.82,-23.82 56.68,-38.56 92.92,-38.56 36.23,0 69.1,14.74 92.92,38.56l0.14 0.14c23.82,23.82 38.56,56.68 38.56,92.92zm155.84 85.07c0.34,0.49 0.68,0.98 0.99,1.49l0.03 0.04 0.01 0.02c6.15,9.08 13.13,17.54 20.85,25.26 29.46,29.46 69.62,48.22 114.16,49.98l0.23 0.01 1.13 0.04 1.07 0.03 0.3 0.01 1.37 0.03 0.53 0.01 0.84 0.01 1.38 0.01 1.38 -0.01 0.84 -0.01 0.53 -0.01 1.37 -0.03 0.3 -0.01 1.07 -0.03 1.13 -0.04 0.23 -0.01c44.54,-1.75 84.7,-20.52 114.16,-49.98 30.96,-30.96 50.11,-73.75 50.11,-121 0,-47.26 -19.16,-90.05 -50.11,-121 -30.96,-30.96 -73.75,-50.11 -121,-50.11 -47.26,0 -90.05,19.16 -121,50.11 -30.96,30.96 -50.11,73.74 -50.11,121 0,34.8 10.39,67.18 28.23,94.19zm281.58 548.05l0 -68.53c0,-4.37 -1.73,-8.29 -4.5,-11.06l-0.07 -0.07 -0.07 0.07c-2.86,-2.86 -6.79,-4.64 -11.06,-4.64l-245.98 0c-4.28,0 -8.2,1.78 -11.06,4.64 -2.86,2.86 -4.64,6.79 -4.64,11.06l0 68.53 277.39 0zm-512.69 -579.74l0 -53.38c0,-15.63 -6.28,-29.74 -16.42,-39.92 -10.18,-10.15 -24.29,-16.42 -39.92,-16.42 -15.63,0 -29.74,6.28 -39.92,16.42 -10.15,10.18 -16.42,24.29 -16.42,39.92l0 97.44c0,33.62 13.78,64.21 35.98,86.41 22.2,22.2 52.79,35.98 86.41,35.98l160.03 0c20.78,0 37.64,16.86 37.64,37.64l0 116.6c0,20.78 -16.86,37.64 -37.64,37.64 -33.62,0 -64.22,13.78 -86.42,35.97 -22.19,22.2 -35.97,52.79 -35.97,86.42l0 99.02 112.69 0 0 -68.53c0,-25.04 10.23,-47.81 26.7,-64.28 16.47,-16.47 39.23,-26.7 64.28,-26.7l245.98 0c25.04,0 47.81,10.23 64.28,26.7l-0.07 0.07c16.53,16.54 26.78,39.28 26.78,64.2l0 68.53 112.69 0 0 -99.02c0,-33.62 -13.78,-64.22 -35.97,-86.42 -22.2,-22.19 -52.79,-35.97 -86.42,-35.97 -20.78,0 -37.64,-16.86 -37.64,-37.64l0 -116.6c0,-20.78 16.86,-37.64 37.64,-37.64l160.03 0c33.61,0 64.2,-13.78 86.41,-35.99 22.2,-22.2 35.99,-52.79 35.99,-86.41l0 -97.44c0,-15.63 -6.28,-29.74 -16.42,-39.92 -10.18,-10.15 -24.29,-16.42 -39.92,-16.42 -15.63,0 -29.74,6.28 -39.92,16.42 -10.15,10.18 -16.42,24.29 -16.42,39.92l0 53.38c0,24.84 -10.19,47.51 -26.62,64.05l-0.23 0.23c-16.55,16.48 -39.26,26.7 -64.13,26.7l-90.27 0c-5.78,7.26 -11.97,14.18 -18.53,20.73 -41.57,41.57 -97.92,68.35 -160.47,71.79l-0.2 0.02 -1.87 0.09 -1.94 0.09 -0.22 0.01 -1.72 0.06 -1.44 0.04 -0.51 0.01 -1.95 0.04 -0.72 0.01 -0.12 0 -3.07 0.02 -3.07 -0.02 -0.12 0 -0.72 -0.01 -1.95 -0.04 -0.51 -0.01 -1.44 -0.04 -1.72 -0.06 -0.22 -0.01 -1.94 -0.09 -1.9 -0.1 -0.11 -0.01c-62.58,-3.42 -118.96,-30.21 -160.54,-71.79 -6.56,-6.56 -12.74,-13.47 -18.53,-20.73l-90.27 0c-25.06,0 -47.81,-10.23 -64.28,-26.7 -16.47,-16.47 -26.7,-39.23 -26.7,-64.28z"/>
</svg>