<svg xmlns="http://www.w3.org/2000/svg" viewBox="0 0 1123.95 1123.95" width="21" height="21">
  <path fill="currentColor" d="M197.67 0l728.61 0c54.39,0 103.82,22.23 139.63,58.04 35.81,35.81 58.04,85.24 58.04,139.63l0 728.61c0,54.39 -22.23,103.83 -58.04,139.63 -35.8,35.81 -85.23,58.04 -139.63,58.04l-728.61 0c-54.39,0 -103.82,-22.23 -139.63,-58.04 -35.8,-35.8 -58.04,-85.24 -58.04,-139.63l0 -728.61c0,-54.39 22.23,-103.82 58.04,-139.63 35.81,-35.8 85.24,-58.04 139.63,-58.04zm38.89 739.18l650.83 0c25.05,0 47.81,10.23 64.28,26.7 16.47,16.47 26.7,39.23 26.7,64.28l0 57.23c0,24.88 -10.23,47.59 -26.7,64.13l-0.14 0.14c-16.55,16.48 -39.26,26.7 -64.13,26.7l-650.83 0c-25.05,0 -47.81,-10.23 -64.28,-26.7 -16.47,-16.47 -26.7,-39.23 -26.7,-64.28l0 -57.23c0,-24.95 10.23,-47.67 26.7,-64.14l0.14 -0.14c16.47,-16.47 39.19,-26.7 64.14,-26.7zm0 -593.61l650.83 0c25.05,0 47.81,10.23 64.28,26.7 16.47,16.47 26.7,39.23 26.7,64.28l0 57.23c0,24.88 -10.23,47.59 -26.7,64.13l-0.14 0.14c-16.55,16.48 -39.26,26.7 -64.13,26.7l-650.83 0c-25.05,0 -47.81,-10.23 -64.28,-26.7 -16.47,-16.47 -26.7,-39.23 -26.7,-64.28l0 -57.23c0,-24.95 10.23,-47.67 26.7,-64.14l0.14 -0.14c16.47,-16.47 39.19,-26.7 64.14,-26.7zm0 296.8l650.83 0c25.05,0 47.81,10.23 64.28,26.7 16.47,16.47 26.7,39.23 26.7,64.28l0 57.23c0,24.88 -10.23,47.59 -26.7,64.13l-0.14 0.14c-16.55,16.48 -39.26,26.7 -64.13,26.7l-650.83 0c-25.05,0 -47.81,-10.23 -64.28,-26.7 -16.47,-16.47 -26.7,-39.23 -26.7,-64.28l0 -57.23c0,-24.95 10.23,-47.67 26.7,-64.14l0.14 -0.14c16.47,-16.47 39.19,-26.7 64.14,-26.7zm689.72 -367.1l-728.61 0c-33.62,0 -64.22,13.78 -86.42,35.97 -22.19,22.2 -35.97,52.79 -35.97,86.42l0 728.61c0,33.62 13.78,64.22 35.97,86.41 22.2,22.2 52.79,35.98 86.42,35.98l728.61 0c33.62,0 64.22,-13.78 86.41,-35.98 22.2,-22.19 35.98,-52.79 35.98,-86.41l0 -728.61c0,-33.62 -13.78,-64.22 -35.98,-86.42 -22.19,-22.19 -52.79,-35.97 -86.41,-35.97z"/>
</svg>