<svg xmlns="http://www.w3.org/2000/svg" viewBox="0 0 498.28 498.28" width="21" height="21">
  <path fill="currentColor" d="M498.28 249.14l0 161.51c0,24.11 -9.86,46.03 -25.73,61.9 -15.87,15.88 -37.79,25.73 -61.9,25.73l-323.02 0c-24.11,0 -46.03,-9.86 -61.9,-25.73 -15.87,-15.87 -25.73,-37.79 -25.73,-61.9l0 -161.51c0,-13.81 4.3,-24.54 15.64,-35.77 8.9,-8.82 22.48,-17.72 43,-29.57 21.66,-12.5 41.09,-35.55 52.68,-51.18 -1.05,-0.86 -2.07,-1.77 -3.03,-2.73l-0.06 -0.06c-7.31,-7.34 -11.84,-17.4 -11.84,-28.43l0 -61.05c0,-11.03 4.53,-21.1 11.84,-28.43l0.06 -0.06c7.33,-7.31 17.4,-11.84 28.43,-11.84l224.84 0c11.03,0 21.1,4.53 28.43,11.84l0.06 0.06c7.31,7.33 11.84,17.4 11.84,28.43l0 61.05c0,11.03 -4.53,21.1 -11.84,28.43l-0.06 0.06c-0.96,0.96 -1.98,1.87 -3.03,2.73 11.6,15.63 31.03,38.68 52.68,51.18 20.52,11.85 34.1,20.75 43,29.57 11.33,11.24 15.64,21.97 15.64,35.77zm-242.55 173.02c-40.98,-0 -74.2,-33.22 -74.2,-74.2 0,-45.4 34.26,-75.49 74.2,-163.49 39.93,88 74.2,118.09 74.2,163.49 0,40.98 -33.22,74.2 -74.2,74.2zm96.91 -280.44l-206.99 0c-11.03,16.06 -38.17,52.25 -70.45,70.89 -17.96,10.37 -29.49,17.82 -36.09,24.35 -4.15,4.11 -5.73,7.75 -5.73,12.18l0 161.51c0,14.91 6.11,28.47 15.95,38.31 9.84,9.84 23.41,15.95 38.31,15.95l323.02 0c14.91,0 28.47,-6.11 38.31,-15.95 9.84,-9.84 15.95,-23.4 15.95,-38.31l0 -161.51c0,-4.43 -1.58,-8.06 -5.73,-12.18 -6.6,-6.54 -18.14,-13.99 -36.09,-24.35 -32.29,-18.64 -59.43,-54.83 -70.45,-70.89z"/>
</svg>