<svg xmlns="http://www.w3.org/2000/svg" viewBox="0 0 4306.8 4306.8" width="21" height="21">
  <path fill="currentColor" d="M2153.4 0c594.59,0 1132.97,241.05 1522.65,630.75 389.7,389.68 630.75,928.06 630.75,1522.65 0,224.66 -34.69,441.76 -98.93,646.18 -66.31,210.86 -164.63,408.26 -289.27,586.46 -242.61,346.83 -513.79,157.98 -805.97,-45.54 -193.1,-134.5 -400.59,-278.99 -547.89,-145.7 -76.18,68.95 -70.72,269.28 -65.59,458.23 9.24,338.96 17.8,653.77 -345.75,653.77 -594.59,0 -1132.95,-241.05 -1522.65,-630.75 -389.7,-389.7 -630.75,-928.06 -630.75,-1522.65 0,-594.59 241.05,-1132.97 630.75,-1522.65 389.7,-389.7 928.06,-630.75 1522.65,-630.75zm0 690.68c176.22,0 319.1,142.88 319.1,319.1 0,176.22 -142.88,319.1 -319.1,319.1 -176.22,0 -319.1,-142.88 -319.1,-319.1 0,-176.22 142.88,-319.1 319.1,-319.1zm1462.72 1462.72c0,176.22 -142.88,319.1 -319.1,319.1 -176.22,0 -319.1,-142.88 -319.1,-319.1 0,-176.22 142.88,-319.1 319.1,-319.1 176.22,0 319.1,142.88 319.1,319.1zm-2287.22 0c0,176.22 -142.88,319.1 -319.1,319.1 -176.22,0 -319.1,-142.88 -319.1,-319.1 0,-176.22 142.88,-319.1 319.1,-319.1 176.22,0 319.1,142.88 319.1,319.1zm1858.81 -1034.31c124.6,124.63 124.6,326.66 0,451.28 -124.63,124.6 -326.66,124.6 -451.28,0 -124.6,-124.63 -124.6,-326.66 0,-451.28 124.63,-124.6 326.66,-124.6 451.28,0zm-1617.33 1617.33c124.63,124.6 124.63,326.66 0,451.26 -124.6,124.6 -326.66,124.6 -451.26,0 -124.6,-124.6 -124.6,-326.66 0,-451.26 124.6,-124.63 326.66,-124.63 451.26,0zm-451.28 -1617.33c124.63,-124.6 326.66,-124.6 451.28,0 124.6,124.63 124.6,326.66 0,451.28 -124.63,124.6 -326.66,124.6 -451.28,0 -124.6,-124.63 -124.6,-326.66 0,-451.28zm2353.04 -284.43c-337.45,-337.45 -803.72,-546.21 -1318.74,-546.21 -515.02,0 -981.26,208.74 -1318.74,546.21 -337.45,337.45 -546.21,803.72 -546.21,1318.74 0,515.02 208.74,981.26 546.21,1318.74 337.47,337.47 803.72,546.21 1318.74,546.21 68.21,0 63.49,-172.66 58.44,-358.57 -6.87,-252.44 -14.14,-520.11 160.23,-677.93 317.4,-287.25 621.78,-75.28 905.06,122.03 170.27,118.62 328.31,228.69 405.99,117.66 107.23,-153.3 192.12,-324.12 249.82,-507.6 55.45,-176.46 85.4,-364.76 85.4,-560.54 0,-515.02 -208.76,-981.28 -546.21,-1318.74z"/>
</svg>