<svg xmlns="http://www.w3.org/2000/svg" viewBox="0 0 476.77 488.86" width="21" height="21">
  <path fill="currentColor" d="M476.35 300.04c-7.54,32.29 -21.66,63.05 -41.76,90.14 -19.3,26.02 -44.16,48.62 -74.07,65.88 -58.45,33.75 -125.02,40.62 -185.39,24.44 -55.47,-14.86 -105.76,-49.21 -139.75,-100.05l-8.68 5.01c-7.8,4.48 -17.77,1.79 -22.25,-6.01 -1.47,-2.56 -2.17,-5.36 -2.17,-8.12l-0.07 0 0 -119.21c0,-9.04 7.33,-16.37 16.37,-16.37 3.39,0 6.54,1.03 9.16,2.8l102.26 59.04c7.8,4.52 10.47,14.51 5.95,22.32 -1.51,2.61 -3.63,4.64 -6.07,6.02l-7.29 4.21c19.86,26.88 47.83,45.16 78.51,53.38 35.62,9.54 74.86,5.51 109.27,-14.36 20.49,-11.83 36.97,-27.92 48.94,-46.48 12.49,-19.35 20.13,-41.36 22.4,-64.03 0.88,-8.97 8.87,-15.52 17.84,-14.64 2.4,0.24 4.62,0.98 6.58,2.12l62.49 36.07c6.37,3.69 9.31,11.02 7.73,17.84zm-67.97 70.7c14.95,-20.15 26.08,-42.72 33.07,-66.52l-31.39 -18.12c-4.65,19.17 -12.47,37.54 -23.25,54.23 -14.73,22.84 -34.95,42.6 -60.07,57.1 -42.27,24.41 -90.42,29.38 -134.08,17.68 -43.29,-11.6 -82.23,-39.63 -106.69,-81.38l-0.59 -0.94c-4.11,-7.09 -2.28,-16 3.95,-20.96l-54.38 -31.4 0 62.84c7.39,-2.9 15.99,-0.03 20.06,7.06 29.2,50.58 76.2,84.55 128.56,98.58 52.38,14.03 110.09,8.1 160.71,-21.12 25.83,-14.91 47.35,-34.49 64.09,-57.06zm40.65 -120.43l-102.26 -59.04c-7.8,-4.52 -10.47,-14.51 -5.95,-22.32 1.51,-2.61 3.63,-4.64 6.07,-6.02l7.29 -4.21c-19.85,-26.88 -47.82,-45.16 -78.51,-53.38 -35.62,-9.54 -74.86,-5.51 -109.27,14.36 -20.49,11.83 -36.97,27.92 -48.94,46.48 -12.49,19.35 -20.13,41.36 -22.4,64.03 -0.88,8.97 -8.87,15.52 -17.84,14.64 -2.4,-0.24 -4.62,-0.98 -6.58,-2.12l-62.49 -36.07c-6.37,-3.69 -9.31,-11.02 -7.72,-17.84 7.54,-32.29 21.65,-63.05 41.75,-90.14 19.29,-26 44.13,-48.59 74.02,-65.85l-0.02 -0.03c58.47,-33.76 125.06,-40.62 185.45,-24.44 55.51,14.87 105.81,49.22 139.78,100.03l8.65 -5c7.8,-4.48 17.77,-1.79 22.25,6.01 1.47,2.56 2.17,5.36 2.17,8.12l0.07 0 0 119.21c0,9.04 -7.33,16.37 -16.37,16.37 -3.39,0 -6.54,-1.03 -9.16,-2.8zm-34.27 -57.5l27.06 15.62 0 -62.8c-7.38,2.89 -15.97,0.04 -20.06,-7.03 -29.23,-50.63 -76.22,-84.62 -128.56,-98.65 -52.35,-14.02 -110.04,-8.09 -160.64,21.12l-0.02 -0.03 -0.05 0.03c-25.83,14.91 -47.35,34.49 -64.09,57.06 -14.95,20.15 -26.08,42.72 -33.07,66.52l31.39 18.12c4.65,-19.17 12.47,-37.54 23.25,-54.23 14.73,-22.84 34.95,-42.6 60.07,-57.1 42.27,-24.41 90.42,-29.38 134.08,-17.68 43.29,11.6 82.23,39.63 106.69,81.38l0.59 0.94c4.11,7.09 2.28,16 -3.95,20.96l27.32 15.77z"/>
</svg>