<svg xmlns="http://www.w3.org/2000/svg" viewBox="0 0 733.25 733.25" width="21" height="21">
  <path fill="currentColor" d="M366.63 264.65c28.15,0 53.65,11.42 72.1,29.87 18.45,18.45 29.87,43.95 29.87,72.1 0,28.15 -11.42,53.65 -29.87,72.1 -18.45,18.45 -43.95,29.87 -72.1,29.87 -28.15,0 -53.65,-11.42 -72.1,-29.87 -18.45,-18.45 -29.87,-43.95 -29.87,-72.1 0,-28.15 11.42,-53.65 29.87,-72.1 18.45,-18.45 43.95,-29.87 72.1,-29.87zm37.39 64.59c-9.56,-9.56 -22.78,-15.48 -37.39,-15.48 -14.6,0 -27.83,5.92 -37.39,15.48 -9.56,9.56 -15.48,22.78 -15.48,37.39 0,14.6 5.92,27.83 15.48,37.39 9.56,9.56 22.78,15.48 37.39,15.48 14.61,0 27.83,-5.92 37.39,-15.48 9.56,-9.56 15.48,-22.78 15.48,-37.39 0,-14.61 -5.92,-27.83 -15.48,-37.39zm79.83 -224.03l27.96 -27.96c11.56,-11.56 26.78,-17.35 41.96,-17.35 15.13,0 30.3,5.79 41.87,17.34l0.05 0.05 0.05 -0.05 60.28 60.28c11.56,11.56 17.35,26.78 17.35,41.96 0,15.13 -5.78,30.3 -17.34,41.87l-0.05 0.05 0.05 0.05 -27.96 27.96c1.13,2.52 2.23,5.05 3.28,7.59 1.04,2.51 2.05,5.06 3.04,7.65l39.53 0c16.28,0 31.1,6.67 41.84,17.42l0.09 0.09c10.74,10.75 17.42,25.56 17.42,41.84l0 85.25c0,16.34 -6.67,31.19 -17.42,41.93 -0.55,0.55 -1.12,1.07 -1.71,1.56 -10.59,9.82 -24.75,15.86 -40.23,15.86l-39.53 0c-0.98,2.58 -1.99,5.13 -3.03,7.63 -1.05,2.55 -2.15,5.08 -3.29,7.6l27.96 27.96c11.56,11.56 17.35,26.78 17.35,41.96 0,15.13 -5.78,30.3 -17.34,41.87l-0.05 0.05 0.05 0.05 -60.28 60.28c-11.56,11.56 -26.78,17.35 -41.96,17.35 -15.13,0 -30.3,-5.78 -41.87,-17.34l-0.05 -0.05 -0.05 0.05 -27.96 -27.96c-2.51,1.13 -5.03,2.22 -7.57,3.27 -2.52,1.04 -5.07,2.06 -7.66,3.04l0 39.53c0,16.28 -6.67,31.09 -17.42,41.84l-0.05 0.05 0.05 0.05c-10.74,10.74 -25.59,17.42 -41.93,17.42l-85.25 0c-16.23,0 -31.05,-6.67 -41.84,-17.42l-0.15 -0.15c-10.72,-10.79 -17.37,-25.58 -17.37,-41.79l0 -39.53c-2.58,-0.98 -5.13,-1.99 -7.64,-3.03 -2.55,-1.05 -5.08,-2.15 -7.6,-3.29l-27.96 27.96c-11.56,11.56 -26.78,17.35 -41.96,17.35 -15.13,0 -30.3,-5.78 -41.87,-17.34l-0.05 -0.05 -0.05 0.05 -60.28 -60.28c-11.56,-11.56 -17.35,-26.78 -17.35,-41.96 0,-15.13 5.79,-30.3 17.34,-41.87l0.05 -0.05 -0.05 -0.05 27.96 -27.96c-1.13,-2.51 -2.22,-5.04 -3.28,-7.58 -1.04,-2.51 -2.06,-5.07 -3.04,-7.65l-39.53 0c-16.28,0 -31.09,-6.67 -41.84,-17.42l-0.05 -0.05 -0.05 0.05c-10.74,-10.74 -17.42,-25.59 -17.42,-41.93l0 -85.25c0,-16.34 6.67,-31.19 17.42,-41.94 10.74,-10.74 25.59,-17.42 41.93,-17.42l39.53 0c0.98,-2.58 1.99,-5.13 3.03,-7.64 1.05,-2.55 2.15,-5.08 3.29,-7.6l-27.96 -27.96c-11.56,-11.56 -17.35,-26.78 -17.35,-41.96 0,-15.13 5.79,-30.3 17.34,-41.87l0.05 -0.05 -0.05 -0.05 60.28 -60.28c11.56,-11.56 26.78,-17.35 41.96,-17.35 15.13,0 30.3,5.79 41.87,17.34l0.05 0.05 0.05 -0.05 27.96 27.96c2.51,-1.13 5.04,-2.22 7.58,-3.28 2.52,-1.04 5.07,-2.06 7.66,-3.04l0 -39.53c0,-16.34 6.67,-31.19 17.42,-41.94 10.74,-10.74 25.59,-17.42 41.93,-17.42l85.25 0c16.34,0 31.19,6.67 41.93,17.42 0.55,0.55 1.07,1.12 1.56,1.71 9.82,10.59 15.86,24.75 15.86,40.23l0 39.53c2.59,0.98 5.14,2 7.65,3.04 2.54,1.05 5.07,2.15 7.59,3.28zm62.67 6.76l-40.3 40.3 -0.03 -0.03c-7.39,7.4 -19.01,9.48 -28.74,4.35 -6.43,-3.4 -13.11,-6.55 -19.98,-9.4 -6.31,-2.62 -12.62,-4.93 -18.89,-6.93 -10.92,-2.49 -19.07,-12.27 -19.07,-23.94l0 -56.97c0,-2.5 -0.89,-4.8 -2.36,-6.59l-0.66 -0.63c-1.86,-1.86 -4.42,-3.02 -7.22,-3.02l-85.25 0c-2.79,0 -5.36,1.16 -7.22,3.02 -1.87,1.87 -3.03,4.43 -3.03,7.22l0 56.97 -0.07 0c0,10.47 -6.77,20.17 -17.3,23.4 -6.83,2.11 -13.71,4.61 -20.61,7.47 -6.38,2.64 -12.58,5.54 -18.58,8.66 -9.46,5.79 -21.98,4.59 -30.17,-3.59l-40.3 -40.3 0.04 -0.05c-1.96,-1.93 -4.61,-2.91 -7.29,-2.91 -2.64,0 -5.28,0.99 -7.24,2.95l-60.28 60.28 -0.05 -0.04c-1.93,1.96 -2.91,4.61 -2.91,7.29 0,2.64 0.99,5.28 2.95,7.24l40.31 40.31 -0.03 0.03c7.4,7.39 9.48,19.01 4.35,28.74 -3.4,6.44 -6.55,13.12 -9.4,20 -2.61,6.31 -4.93,12.61 -6.93,18.87 -2.49,10.92 -12.26,19.07 -23.94,19.07l-56.97 0c-2.79,0 -5.36,1.16 -7.22,3.02 -1.87,1.87 -3.03,4.43 -3.03,7.22l0 85.25c0,2.79 1.16,5.36 3.02,7.22l-0.05 0.05c1.86,1.84 4.43,2.98 7.27,2.98l56.97 0 0 0.07c10.47,-0 20.17,6.77 23.4,17.3 2.11,6.83 4.61,13.71 7.47,20.6 2.64,6.38 5.54,12.59 8.67,18.59 5.79,9.46 4.59,21.98 -3.59,30.16l-40.3 40.3 -0.05 -0.04c-1.93,1.96 -2.91,4.61 -2.91,7.29 0,2.64 0.99,5.28 2.95,7.24l60.28 60.28 -0.04 0.05c1.96,1.93 4.6,2.91 7.29,2.91 2.64,0 5.28,-0.99 7.24,-2.95l40.31 -40.31 0.03 0.03c7.39,-7.4 19.01,-9.48 28.74,-4.35 6.44,3.4 13.12,6.55 20,9.4 6.31,2.61 12.6,4.93 18.87,6.93 10.92,2.49 19.08,12.26 19.08,23.94l0 56.97c0,2.86 1.13,5.41 2.93,7.22l0.09 0.09c1.81,1.81 4.36,2.93 7.22,2.93l85.25 0c2.79,0 5.36,-1.16 7.22,-3.02l0.05 0.05c1.84,-1.86 2.98,-4.43 2.98,-7.27l0 -56.97 0.07 0c-0,-10.47 6.77,-20.17 17.3,-23.4 6.84,-2.11 13.72,-4.61 20.61,-7.47 6.38,-2.64 12.57,-5.54 18.57,-8.66 9.46,-5.79 21.98,-4.59 30.17,3.59l40.3 40.3 -0.04 0.05c1.96,1.93 4.6,2.91 7.29,2.91 2.64,0 5.28,-0.99 7.24,-2.95l60.28 -60.28 0.05 0.04c1.93,-1.96 2.91,-4.6 2.91,-7.29 0,-2.64 -0.99,-5.28 -2.95,-7.24l-40.31 -40.31 0.03 -0.03c-7.4,-7.39 -9.48,-19.01 -4.35,-28.74 3.4,-6.44 6.55,-13.12 9.4,-20 2.61,-6.31 4.93,-12.6 6.93,-18.87 2.49,-10.92 12.26,-19.07 23.94,-19.07l56.97 0c2.5,0 4.8,-0.89 6.59,-2.36l0.63 -0.66c1.86,-1.86 3.02,-4.42 3.02,-7.22l0 -85.25c0,-2.83 -1.14,-5.4 -2.98,-7.27 -1.86,-1.84 -4.43,-2.98 -7.27,-2.98l-56.97 0 0 -0.07c-10.47,0 -20.17,-6.77 -23.4,-17.3 -2.11,-6.83 -4.61,-13.71 -7.46,-20.6 -2.64,-6.38 -5.55,-12.59 -8.67,-18.59 -5.79,-9.46 -4.59,-21.98 3.59,-30.16l40.3 -40.3 0.05 0.04c1.93,-1.96 2.91,-4.6 2.91,-7.29 0,-2.64 -0.99,-5.28 -2.95,-7.24l-60.28 -60.28 0.04 -0.05c-1.96,-1.93 -4.61,-2.91 -7.29,-2.91 -2.64,0 -5.28,0.99 -7.25,2.95z"/>
</svg>